<svg id="Двата_бука" data-name="Двата бука" xmlns="http://www.w3.org/2000/svg" xmlns:xlink="http://www.w3.org/1999/xlink" viewBox="0 0 252 165"><defs><style>.cls-1,.cls-17{fill:#c1d825;}.cls-1,.cls-2{stroke:#c1d825;stroke-width:0.9px;}.cls-1,.cls-2,.cls-22{stroke-miterlimit:10;}.cls-1{opacity:0.6;}.cls-1,.cls-21{isolation:isolate;}.cls-2,.cls-22{fill:none;}.cls-3{fill:#a81916;}.cls-4{fill:url(#linear-gradient);}.cls-5{fill:url(#linear-gradient-2);}.cls-6{fill:url(#linear-gradient-3);}.cls-7{fill:url(#linear-gradient-4);}.cls-8{fill:url(#linear-gradient-5);}.cls-9{fill:url(#linear-gradient-6);}.cls-10{fill:#d9a706;}.cls-11{fill:url(#linear-gradient-7);}.cls-12{fill:url(#linear-gradient-8);}.cls-13{fill:url(#linear-gradient-9);}.cls-14{fill:url(#linear-gradient-10);}.cls-15{fill:url(#linear-gradient-11);}.cls-16{fill:url(#linear-gradient-12);}.cls-18{fill:#c8b9a9;}.cls-19{fill:#aca28f;}.cls-20{fill:#bd1622;}.cls-22{stroke:#1d1d1b;stroke-width:0.6px;}</style><linearGradient id="linear-gradient" x1="134.5" y1="-324.46" x2="134.5" y2="-245.93" gradientTransform="matrix(1, 0, 0, -1, 0, -165.62)" gradientUnits="userSpaceOnUse"><stop offset="0" stop-color="#cb1517"/><stop offset="1" stop-color="#e42320"/></linearGradient><linearGradient id="linear-gradient-2" x1="132.42" y1="-323.83" x2="132.42" y2="-244.91" gradientTransform="matrix(1, 0, 0, -1, 0, -165.62)" gradientUnits="userSpaceOnUse"><stop offset="0.01" stop-color="#d61016"/><stop offset="1" stop-color="#ed7659"/></linearGradient><linearGradient id="linear-gradient-3" x1="129.12" y1="-252.82" x2="139.87" y2="-252.82" gradientTransform="matrix(1, 0, 0, -1, 0, -165.62)" gradientUnits="userSpaceOnUse"><stop offset="0.01" stop-color="#cdc28d"/><stop offset="0.01" stop-color="#c0b580"/><stop offset="0.04" stop-color="#948b54"/><stop offset="0.06" stop-color="#746c34"/><stop offset="0.08" stop-color="#605920"/><stop offset="0.09" stop-color="#595219"/><stop offset="0.1" stop-color="#746925"/><stop offset="0.11" stop-color="#9d8c36"/><stop offset="0.13" stop-color="#bda844"/><stop offset="0.14" stop-color="#d4bb4e"/><stop offset="0.15" stop-color="#e1c754"/><stop offset="0.16" stop-color="#e6cb56"/><stop offset="0.22" stop-color="#eeebce"/><stop offset="0.23" stop-color="#ece3b0"/><stop offset="0.24" stop-color="#e9d786"/><stop offset="0.26" stop-color="#e7cd61"/><stop offset="0.27" stop-color="#e5c544"/><stop offset="0.29" stop-color="#e3bf2d"/><stop offset="0.3" stop-color="#e2ba1d"/><stop offset="0.32" stop-color="#e1b813"/><stop offset="0.34" stop-color="#e1b710"/><stop offset="0.36" stop-color="#e2bb1d"/><stop offset="0.39" stop-color="#e4c43f"/><stop offset="0.43" stop-color="#e7d375"/><stop offset="0.48" stop-color="#ece8c0"/><stop offset="0.48" stop-color="#ece9c4"/><stop offset="0.49" stop-color="#d1ceac"/><stop offset="0.53" stop-color="#a09d7f"/><stop offset="0.57" stop-color="#767359"/><stop offset="0.6" stop-color="#56533c"/><stop offset="0.63" stop-color="#3f3c28"/><stop offset="0.66" stop-color="#322f1b"/><stop offset="0.69" stop-color="#2d2a17"/><stop offset="0.79" stop-color="#868043"/><stop offset="0.87" stop-color="#a88b3b"/><stop offset="0.87" stop-color="#9f8635"/><stop offset="0.87" stop-color="#8e7c2a"/><stop offset="0.88" stop-color="#837523"/><stop offset="0.89" stop-color="#7c711e"/><stop offset="0.92" stop-color="#7a701d"/><stop offset="0.97" stop-color="#675f1c"/><stop offset="1" stop-color="#d2c19a"/></linearGradient><linearGradient id="linear-gradient-4" x1="129.12" y1="-256.9" x2="139.87" y2="-256.9" xlink:href="#linear-gradient-3"/><linearGradient id="linear-gradient-5" x1="129.12" y1="-311.5" x2="139.87" y2="-311.5" xlink:href="#linear-gradient-3"/><linearGradient id="linear-gradient-6" x1="129.12" y1="-315.62" x2="139.87" y2="-315.62" xlink:href="#linear-gradient-3"/><linearGradient id="linear-gradient-7" x1="149.29" y1="-324.51" x2="149.29" y2="-231.74" gradientTransform="matrix(1, 0, 0, -1, 0, -165.62)" gradientUnits="userSpaceOnUse"><stop offset="0" stop-color="#d9a706"/><stop offset="0.53" stop-color="#ffcb03"/><stop offset="1" stop-color="#fdd949"/></linearGradient><linearGradient id="linear-gradient-8" x1="146.48" y1="-323.77" x2="146.48" y2="-230.55" gradientTransform="matrix(1, 0, 0, -1, 0, -165.62)" gradientUnits="userSpaceOnUse"><stop offset="0.13" stop-color="#e9be2a"/><stop offset="1" stop-color="#ffea8c"/></linearGradient><linearGradient id="linear-gradient-9" x1="142.06" y1="-239.86" x2="156.51" y2="-239.86" xlink:href="#linear-gradient-3"/><linearGradient id="linear-gradient-10" x1="142.06" y1="-244.73" x2="156.51" y2="-244.73" xlink:href="#linear-gradient-3"/><linearGradient id="linear-gradient-11" x1="142.06" y1="-309.2" x2="156.51" y2="-309.2" xlink:href="#linear-gradient-3"/><linearGradient id="linear-gradient-12" x1="142.06" y1="-314.04" x2="156.51" y2="-314.04" xlink:href="#linear-gradient-3"/></defs><title>Двата бука</title><path class="cls-1" d="M81.94,35.66a16.05,16.05,0,0,1,4.87-11.2,16.46,16.46,0,0,1,12-4.74c2.52.12,3.27.9,4.74.24,3.09-1.35,2.46-5.89,4.74-10C111,5.14,116.33,3.4,120,2.26c10.78-3.45,25.17-.15,30.39,8.47,3.21,5.29,4.41,12.16,5.92,12.7,1.11.42,3.48-4,7.78-7.42s11.35-6.13,22.67-2.55a26.93,26.93,0,0,1,13.69,9.91c2,2.55,8.32,12,5.5,18-1.05,2.19-1,3.06-.63,4.29.66,2.07,4.05,1.47,8.92,4a15.56,15.56,0,0,1,8.17,10.66c.69,3.18,1.68,16.34-2.31,21.56-2.76,3.6-5.11,6.91-13.21,8.41-1.56.3.69,3.3-1.56,5.62-1.62,1.65-2.91-.09-4.29,1.5-1.74,2-1.38,3.54-2,4.53,0,0-.84,3.27-6.73,5.5-7.21,2.7-19.76,1-22.67-4.23-4.11-7.42-9.64-10.39-15.44-11-4.17-.42-12.22,2.25-15.44,4.93-7.39,6.13-11.65,4.05-14.08,2.49-2-1.32-1.47-3.21-3-3.3-3.9-.24-4.74,9.34-13.09,9.22-6.49-.09-7.36-4.62-10-3.48-9,3.84-13.27,4.23-16.34,2-2.61-1.92-5.23-.9-5.23-7.48,0-1.86.36-5.23-1.62-5.74-6.49-1.62-10.09-.12-14-3.87s-4.26-9.07-4.47-11.83c-.15-2,.75-13,4.23-16.82,6.07-6.73,14.2-6.49,21.8-5.62,3.69.42-1.62-10.54-1.62-12C81.31,38.51,81.91,37.43,81.94,35.66Z"/><path class="cls-2" d="M81.94,35.66a16.05,16.05,0,0,1,4.87-11.2,16.46,16.46,0,0,1,12-4.74c2.52.12,3.27.9,4.74.24,3.09-1.35,2.46-5.89,4.74-10C111,5.14,116.33,3.4,120,2.26c10.78-3.45,25.17-.15,30.39,8.47,3.21,5.29,4.41,12.16,5.92,12.7,1.11.42,3.48-4,7.78-7.42s11.35-6.13,22.67-2.55a26.93,26.93,0,0,1,13.69,9.91c2,2.55,8.32,12,5.5,18-1.05,2.19-1,3.06-.63,4.29.66,2.07,4.05,1.47,8.92,4a15.56,15.56,0,0,1,8.17,10.66c.69,3.18,1.68,16.34-2.31,21.56-2.76,3.6-5.11,6.91-13.21,8.41-1.56.3.69,3.3-1.56,5.62-1.62,1.65-2.91-.09-4.29,1.5-1.74,2-1.38,3.54-2,4.53,0,0-.84,3.27-6.73,5.5-7.21,2.7-19.76,1-22.67-4.23-4.11-7.42-9.64-10.39-15.44-11-4.17-.42-12.22,2.25-15.44,4.93-7.39,6.13-11.65,4.05-14.08,2.49-2-1.32-1.47-3.21-3-3.3-3.9-.24-4.74,9.34-13.09,9.22-6.49-.09-7.36-4.62-10-3.48-9,3.84-13.27,4.23-16.34,2-2.61-1.92-5.23-.9-5.23-7.48,0-1.86.36-5.23-1.62-5.74-6.49-1.62-10.09-.12-14-3.87s-4.26-9.07-4.47-11.83c-.15-2,.75-13,4.23-16.82,6.07-6.73,14.2-6.49,21.8-5.62,3.69.42-1.62-10.54-1.62-12C81.31,38.51,81.91,37.43,81.94,35.66Z"/><g id="Книги"><rect x="128.16" y="79.68" width="12.67" height="78.53"/><rect class="cls-3" x="128.34" y="79.68" width="12.31" height="78.53"/><rect class="cls-4" x="129.12" y="79.68" width="10.75" height="78.53"/><rect class="cls-5" x="130.74" y="79.68" width="3.36" height="78.53"/><rect class="cls-3" x="129.12" y="85.69" width="10.75" height="3"/><rect class="cls-6" x="129.12" y="86.11" width="10.75" height="2.19"/><rect class="cls-3" x="129.12" y="89.77" width="10.75" height="3"/><rect class="cls-7" x="129.12" y="90.19" width="10.75" height="2.19"/><rect class="cls-3" x="129.12" y="144.37" width="10.75" height="3"/><rect class="cls-8" x="129.12" y="144.79" width="10.75" height="2.19"/><rect class="cls-3" x="129.12" y="148.48" width="10.75" height="3.03"/><rect class="cls-9" x="129.12" y="148.9" width="10.75" height="2.19"/><rect x="140.77" y="65.39" width="17.03" height="92.77"/><rect class="cls-10" x="141.04" y="65.39" width="16.55" height="92.77"/><rect class="cls-11" x="142.06" y="65.39" width="14.44" height="92.77"/><rect class="cls-12" x="144.23" y="65.39" width="4.5" height="92.77"/><rect class="cls-10" x="142.06" y="72.47" width="14.44" height="3.54"/><rect class="cls-13" x="142.06" y="72.95" width="14.44" height="2.58"/><rect class="cls-10" x="142.06" y="77.31" width="14.44" height="3.54"/><rect class="cls-14" x="142.06" y="77.82" width="14.44" height="2.58"/><rect class="cls-10" x="142.06" y="141.79" width="14.44" height="3.54"/><rect class="cls-15" x="142.06" y="142.3" width="14.44" height="2.58"/><rect class="cls-10" x="142.06" y="146.68" width="14.44" height="3.57"/><rect class="cls-16" x="142.06" y="147.13" width="14.44" height="2.58"/><path class="cls-17" d="M141.41,158.85a.69.69,0,0,1-.09-1.26l38.32,6s71.14-17,71.14-16.37-1.23,14.05-1.23,14.05l-69.79,3.33Z"/><polygon class="cls-17" points="140.99 144.55 179.76 150.71 250.79 147.16 208.2 141.52 140.99 144.55"/><path class="cls-18" d="M141.65,158.91c-.45-.6,2.25-10.09-.66-14.35l38.53,6.07s71.26-4.05,71.26-3.42-1.23,14.05-1.23,14.05l-69.79,3.33Z"/><path class="cls-17" d="M179.7,150.2h-.06L141,144.52c-.42.45-.15.84-.06.84l38.77,5.83Z"/><path class="cls-19" d="M142.32,149.45l37.42,6.22v-1l-37.48-6.22C142.29,148.76,142.32,149.09,142.32,149.45Z"/><path class="cls-19" d="M142.32,154l37.42,6.22v-1l-37.51-6.25A6.48,6.48,0,0,1,142.32,154Z"/><path class="cls-17" d="M179.76,164.55l69.91-3.42s1.11-13.33,1.11-13.93c0-.45-39.37,1.68-59.58,2.79l-11.56.24-.12,14.32Z"/><path class="cls-20" d="M2,138a21.73,21.73,0,0,0-.72,16.07L89.92,165s-4.59-10.69.09-15.26l50.12-4.87S39.77,133.41,39.41,134.46,2,138,2,138Z"/><path class="cls-18" d="M140.1,159.05,89.92,165s-8.5-9,.15-16.1l50.06-4Z"/><polygon class="cls-20" points="88.27 162.99 140.04 157.37 140.1 159.05 89.89 165 88.27 162.99"/><polygon class="cls-19" points="91.81 157.91 139.86 153.53 140.07 154.82 91.81 157.91"/><polygon class="cls-19" points="92.11 153.47 140.13 149.11 140.34 150.41 92.11 153.47"/></g><g id="Двата_бука-2" data-name="Двата бука"><g class="cls-21"><path class="cls-17" d="M36.61,142q0,.91-.17,2.7t-.17,2.7q0,.36.07,1.1t.07,1.1a2.27,2.27,0,0,1-.68,1.69,2.33,2.33,0,0,1-1.7.67,2.12,2.12,0,0,1-2.19-1.57,10,10,0,0,1-.31-3q0-.76.24-3.41-3.89,0-11.83.1t-11.83.09q-.1,5.8-.1,5.15a2.29,2.29,0,0,1-2.36,2.36,2.29,2.29,0,0,1-2.36-2.36q0-1.1,0-3.28t0-3.28a1.84,1.84,0,0,0-.08-.42,1.84,1.84,0,0,1-.08-.47q0-2,3.12-2.36a56.56,56.56,0,0,0,5-24,19.29,19.29,0,0,0-.27-2.71,19.06,19.06,0,0,1-.27-2.59q0-2.38,3.55-2.41t12.14,0q.76,0,2-.07l2-.1a2.4,2.4,0,0,1,1.38-.4,2.34,2.34,0,0,1,1.71.67,2.27,2.27,0,0,1,.68,1.69q0,2.48.07,7.48t.07,7.48q0,4-.29,14.83l.81.41A2.11,2.11,0,0,1,36.61,142Zm-6.94-17.51q0,.88-.12-12.07.62,0-8.11,0-1.46,0-5.34.09,0,.65,0,3.1a68.65,68.65,0,0,1-1.19,12,49.09,49.09,0,0,1-3.39,11.69q2.15,0,6-.12,4.2-.14,6-.14,1.41,0,5.75.14,0-2.65.16-7.33T29.67,124.45Z"/><path class="cls-17" d="M61.44,137.71q0,4.37-6.77,6.18A40.17,40.17,0,0,1,44.34,145a2.67,2.67,0,0,1-1.78-.74,2.16,2.16,0,0,1-.85-1.65v-4.53s.08-4.31.24-12.78v-2.38a8.21,8.21,0,0,1,.31-2.34,1.41,1.41,0,0,1,.72-.93,6,6,0,0,1,1.31-.38,22.09,22.09,0,0,1,4.77-.36,13.35,13.35,0,0,1,7,1.86q3.65,2.17,3.65,5.77,0,3.34-3.58,4.89A10.52,10.52,0,0,1,59.55,134,5.7,5.7,0,0,1,61.44,137.71Zm-4.72-.22q0-1.29-1.88-2.43a9.39,9.39,0,0,0-3.05-1.24,15.77,15.77,0,0,0-2.74-.21q-2.27,0-2.77-.1-.1,1.62-.1,2.74v4.65Q56.71,140.45,56.71,137.49Zm-1.5-10.92q0-1.45-2-2.55a6.92,6.92,0,0,0-3.34-1h-1q-1.81,0-2.46.07,0,.81,0,2.62,0,.45.12,1.79a12.39,12.39,0,0,1,0,1.81,23.58,23.58,0,0,0,2.46.14,16.16,16.16,0,0,0,3.89-.33Q55.21,128.5,55.21,126.57Z"/><path class="cls-17" d="M85.14,145.51q-.45,0-1.65-1a10.67,10.67,0,0,1-1.6-1.74,30.74,30.74,0,0,1-4,1.87,8.9,8.9,0,0,1-2.91.63q-5.58,0-8.13-3.15-2.41-3-2.41-9.06a13.69,13.69,0,0,1,4-9.87,12.74,12.74,0,0,1,9.48-4.1,12.25,12.25,0,0,1,4.65,1.07q3.24,1.34,3.24,3.22a1.61,1.61,0,0,1-.48,1.14,17.39,17.39,0,0,0-.37,3q-.13,2.07-.15,5.32a19.47,19.47,0,0,0,.41,4.67,35.79,35.79,0,0,0,1.5,4.2q.17.43.55,1.26l.14.41a2.06,2.06,0,0,1-.67,1.57A2.21,2.21,0,0,1,85.14,145.51Zm-5-16.58a20.74,20.74,0,0,1,.13-2.23q.13-1.2.39-2.56a11.68,11.68,0,0,0-1.51-.67,3.36,3.36,0,0,0-1-.21,8.27,8.27,0,0,0-6.38,3,11.41,11.41,0,0,0-1.3,12.82,4.75,4.75,0,0,0,4.15,2,8.31,8.31,0,0,0,3.89-.83,14.31,14.31,0,0,0,2.41-1.81A86.64,86.64,0,0,1,80.18,128.93Z"/><path class="cls-17" d="M109.8,121.21a2.39,2.39,0,0,1-.66,1.73,2.23,2.23,0,0,1-1.68.68q-.64,0-1.92-.06t-1.92-.06a13.52,13.52,0,0,0-1.76.14q.52,12.57.52,17.05,0,4.77-2.53,4.77a2.43,2.43,0,0,1-1.66-.62,2,2,0,0,1-.7-1.55q0-.91.07-2.72t.07-2.72q0-3.15-.48-14.17-.79,0-3,0a9.83,9.83,0,0,1-2.89-.29,2.11,2.11,0,0,1-1.5-2.19,2.51,2.51,0,0,1,.63-1.72,2.11,2.11,0,0,1,1.66-.72h14.07a6.62,6.62,0,0,1,2.55.36A2.12,2.12,0,0,1,109.8,121.21Z"/><path class="cls-17" d="M133.15,145.51q-.45,0-1.65-1a10.67,10.67,0,0,1-1.6-1.74,30.74,30.74,0,0,1-4,1.87,8.9,8.9,0,0,1-2.91.63q-5.58,0-8.13-3.15-2.41-3-2.41-9.06a13.69,13.69,0,0,1,4-9.87,12.74,12.74,0,0,1,9.48-4.1,12.25,12.25,0,0,1,4.65,1.07q3.24,1.34,3.24,3.22a1.61,1.61,0,0,1-.48,1.14,17.39,17.39,0,0,0-.37,3q-.13,2.07-.15,5.32a19.47,19.47,0,0,0,.41,4.67,35.79,35.79,0,0,0,1.5,4.2q.17.43.55,1.26l.14.41a2.06,2.06,0,0,1-.67,1.57A2.21,2.21,0,0,1,133.15,145.51Zm-5-16.58a20.74,20.74,0,0,1,.13-2.23q.13-1.2.39-2.56a11.68,11.68,0,0,0-1.51-.67,3.36,3.36,0,0,0-1-.21,8.27,8.27,0,0,0-6.38,3,11.41,11.41,0,0,0-1.3,12.82,4.75,4.75,0,0,0,4.15,2,8.31,8.31,0,0,0,3.89-.83A14.31,14.31,0,0,0,129,138.4,86.64,86.64,0,0,1,128.19,128.93Z"/><path class="cls-17" d="M175.42,109.42q0,2.38-3.55,3.46a22.62,22.62,0,0,1-3.53.14q-4.67,0-6.89,2.43a18.13,18.13,0,0,0-2.72,5.51,10.22,10.22,0,0,1,6.08-1.77,7.81,7.81,0,0,1,7.11,4.15,16.46,16.46,0,0,1,2,8.42,15.62,15.62,0,0,1-2.7,9.21,9.45,9.45,0,0,1-8.16,4.36,8.82,8.82,0,0,1-8.2-4.67q-2.24-3.91-2.24-10.59a32.33,32.33,0,0,1,2.48-12.45q3.05-7.39,8.37-8.75a18,18,0,0,1,3.82-.26,11.35,11.35,0,0,0,3.48-.38q.43-2,1.86-2a2.48,2.48,0,0,1,1.94,1A3.33,3.33,0,0,1,175.42,109.42Zm-5.92,22.75q0-8.13-5-8.13a6,6,0,0,0-5.34,3.17,11.76,11.76,0,0,0-1.67,6.32,8,8,0,0,0,1.38,4.75,4.85,4.85,0,0,0,4.2,2.24,5.6,5.6,0,0,0,5-2.67A10.31,10.31,0,0,0,169.5,132.18Z"/><path class="cls-17" d="M200.6,122.66l-8.25,17.84q-3.05,6.51-4.67,10.9L186.1,156a2.21,2.21,0,0,1-2.15,1.72,2.5,2.5,0,0,1-1.73-.66,2.11,2.11,0,0,1-.73-1.63q0-2.38,5.15-13.81l-8.54-16.43L177,123.47a3.85,3.85,0,0,1-.64-1.84,2.55,2.55,0,0,1,2.43-2.46,2,2,0,0,1,1.69.83,93.71,93.71,0,0,1,8.7,16l3.53-8.23q1.91-4.27,3.67-7.35a2.27,2.27,0,0,1,2-1.34,2.48,2.48,0,0,1,1.73.69,2.17,2.17,0,0,1,.75,1.65A2.89,2.89,0,0,1,200.6,122.66Z"/><path class="cls-17" d="M225,142.12a1.89,1.89,0,0,1-.75,1.55,2.64,2.64,0,0,1-1.68.6,2.31,2.31,0,0,1-2.3-1.69,31.49,31.49,0,0,0-3.47-5.72q-3-4.27-3.91-4.29H210q0,.79,0,2.79t0,2.81a40.91,40.91,0,0,1-.12,4.46,2.16,2.16,0,0,1-2.34,1.93,2.55,2.55,0,0,1-1.71-.6,2,2,0,0,1-.7-1.57q0-1.12.1-3.52t.1-3.54q0-2.27-.17-6.8t-.17-6.82q0-3.08,2.46-3.08a2.45,2.45,0,0,1,1.69.62,2,2,0,0,1,.69,1.57q0,1.74.17,7h1.74a4.79,4.79,0,0,0,4.2-2.6l1-2.29q1.84-3.82,4.56-3.82a4.47,4.47,0,0,1,1.79.41q1.19.53,1.19,1.38,0,1.88-1.62,1.88-1.34,0-2.77,3.2-1,2.17-1.12,2.41a6.94,6.94,0,0,1-1.65,2.1,21.72,21.72,0,0,1,5,5.58Q225,140.09,225,142.12Z"/><path class="cls-17" d="M247.9,145.51q-.45,0-1.65-1a10.67,10.67,0,0,1-1.6-1.74,30.74,30.74,0,0,1-4,1.87,8.9,8.9,0,0,1-2.91.63q-5.58,0-8.13-3.15-2.41-3-2.41-9.06a13.69,13.69,0,0,1,4-9.87,12.74,12.74,0,0,1,9.48-4.1,12.25,12.25,0,0,1,4.65,1.07q3.24,1.34,3.24,3.22a1.61,1.61,0,0,1-.48,1.14,17.39,17.39,0,0,0-.37,3q-.13,2.07-.15,5.32a19.47,19.47,0,0,0,.41,4.67,35.79,35.79,0,0,0,1.5,4.2q.17.43.55,1.26l.14.41a2.06,2.06,0,0,1-.67,1.57A2.21,2.21,0,0,1,247.9,145.51Zm-5-16.58a20.74,20.74,0,0,1,.13-2.23q.13-1.2.39-2.56a11.68,11.68,0,0,0-1.51-.67,3.36,3.36,0,0,0-1-.21,8.27,8.27,0,0,0-6.38,3,11.41,11.41,0,0,0-1.3,12.82,4.75,4.75,0,0,0,4.15,2,8.31,8.31,0,0,0,3.89-.83,14.31,14.31,0,0,0,2.41-1.81A86.64,86.64,0,0,1,242.94,128.93Z"/></g><g class="cls-21"><path class="cls-22" d="M36.61,142q0,.91-.17,2.7t-.17,2.7q0,.36.07,1.1t.07,1.1a2.27,2.27,0,0,1-.68,1.69,2.33,2.33,0,0,1-1.7.67,2.12,2.12,0,0,1-2.19-1.57,10,10,0,0,1-.31-3q0-.76.24-3.41-3.89,0-11.83.1t-11.83.09q-.1,5.8-.1,5.15a2.29,2.29,0,0,1-2.36,2.36,2.29,2.29,0,0,1-2.36-2.36q0-1.1,0-3.28t0-3.28a1.84,1.84,0,0,0-.08-.42,1.84,1.84,0,0,1-.08-.47q0-2,3.12-2.36a56.56,56.56,0,0,0,5-24,19.29,19.29,0,0,0-.27-2.71,19.06,19.06,0,0,1-.27-2.59q0-2.38,3.55-2.41t12.14,0q.76,0,2-.07l2-.1a2.4,2.4,0,0,1,1.38-.4,2.34,2.34,0,0,1,1.71.67,2.27,2.27,0,0,1,.68,1.69q0,2.48.07,7.48t.07,7.48q0,4-.29,14.83l.81.41A2.11,2.11,0,0,1,36.61,142Zm-6.94-17.51q0,.88-.12-12.07.62,0-8.11,0-1.46,0-5.34.09,0,.65,0,3.1a68.65,68.65,0,0,1-1.19,12,49.09,49.09,0,0,1-3.39,11.69q2.15,0,6-.12,4.2-.14,6-.14,1.41,0,5.75.14,0-2.65.16-7.33T29.67,124.45Z"/><path class="cls-22" d="M61.44,137.71q0,4.37-6.77,6.18A40.17,40.17,0,0,1,44.34,145a2.67,2.67,0,0,1-1.78-.74,2.16,2.16,0,0,1-.85-1.65v-4.53s.08-4.31.24-12.78v-2.38a8.21,8.21,0,0,1,.31-2.34,1.41,1.41,0,0,1,.72-.93,6,6,0,0,1,1.31-.38,22.09,22.09,0,0,1,4.77-.36,13.35,13.35,0,0,1,7,1.86q3.65,2.17,3.65,5.77,0,3.34-3.58,4.89A10.52,10.52,0,0,1,59.55,134,5.7,5.7,0,0,1,61.44,137.71Zm-4.72-.22q0-1.29-1.88-2.43a9.39,9.39,0,0,0-3.05-1.24,15.77,15.77,0,0,0-2.74-.21q-2.27,0-2.77-.1-.1,1.62-.1,2.74v4.65Q56.71,140.45,56.71,137.49Zm-1.5-10.92q0-1.45-2-2.55a6.92,6.92,0,0,0-3.34-1h-1q-1.81,0-2.46.07,0,.81,0,2.62,0,.45.12,1.79a12.39,12.39,0,0,1,0,1.81,23.58,23.58,0,0,0,2.46.14,16.16,16.16,0,0,0,3.89-.33Q55.21,128.5,55.21,126.57Z"/><path class="cls-22" d="M85.14,145.51q-.45,0-1.65-1a10.67,10.67,0,0,1-1.6-1.74,30.74,30.74,0,0,1-4,1.87,8.9,8.9,0,0,1-2.91.63q-5.58,0-8.13-3.15-2.41-3-2.41-9.06a13.69,13.69,0,0,1,4-9.87,12.74,12.74,0,0,1,9.48-4.1,12.25,12.25,0,0,1,4.65,1.07q3.24,1.34,3.24,3.22a1.61,1.61,0,0,1-.48,1.14,17.39,17.39,0,0,0-.37,3q-.13,2.07-.15,5.32a19.47,19.47,0,0,0,.41,4.67,35.79,35.79,0,0,0,1.5,4.2q.17.43.55,1.26l.14.41a2.06,2.06,0,0,1-.67,1.57A2.21,2.21,0,0,1,85.14,145.51Zm-5-16.58a20.74,20.74,0,0,1,.13-2.23q.13-1.2.39-2.56a11.68,11.68,0,0,0-1.51-.67,3.36,3.36,0,0,0-1-.21,8.27,8.27,0,0,0-6.38,3,11.41,11.41,0,0,0-1.3,12.82,4.75,4.75,0,0,0,4.15,2,8.31,8.31,0,0,0,3.89-.83,14.31,14.31,0,0,0,2.41-1.81A86.64,86.64,0,0,1,80.18,128.93Z"/><path class="cls-22" d="M109.8,121.21a2.39,2.39,0,0,1-.66,1.73,2.23,2.23,0,0,1-1.68.68q-.64,0-1.92-.06t-1.92-.06a13.52,13.52,0,0,0-1.76.14q.52,12.57.52,17.05,0,4.77-2.53,4.77a2.43,2.43,0,0,1-1.66-.62,2,2,0,0,1-.7-1.55q0-.91.07-2.72t.07-2.72q0-3.15-.48-14.17-.79,0-3,0a9.83,9.83,0,0,1-2.89-.29,2.11,2.11,0,0,1-1.5-2.19,2.51,2.51,0,0,1,.63-1.72,2.11,2.11,0,0,1,1.66-.72h14.07a6.62,6.62,0,0,1,2.55.36A2.12,2.12,0,0,1,109.8,121.21Z"/><path class="cls-22" d="M133.15,145.51q-.45,0-1.65-1a10.67,10.67,0,0,1-1.6-1.74,30.74,30.74,0,0,1-4,1.87,8.9,8.9,0,0,1-2.91.63q-5.58,0-8.13-3.15-2.41-3-2.41-9.06a13.69,13.69,0,0,1,4-9.87,12.74,12.74,0,0,1,9.48-4.1,12.25,12.25,0,0,1,4.65,1.07q3.24,1.34,3.24,3.22a1.61,1.61,0,0,1-.48,1.14,17.39,17.39,0,0,0-.37,3q-.13,2.07-.15,5.32a19.47,19.47,0,0,0,.41,4.67,35.79,35.79,0,0,0,1.5,4.2q.17.43.55,1.26l.14.41a2.06,2.06,0,0,1-.67,1.57A2.21,2.21,0,0,1,133.15,145.51Zm-5-16.58a20.74,20.74,0,0,1,.13-2.23q.13-1.2.39-2.56a11.68,11.68,0,0,0-1.51-.67,3.36,3.36,0,0,0-1-.21,8.27,8.27,0,0,0-6.38,3,11.41,11.41,0,0,0-1.3,12.82,4.75,4.75,0,0,0,4.15,2,8.31,8.31,0,0,0,3.89-.83A14.31,14.31,0,0,0,129,138.4,86.64,86.64,0,0,1,128.19,128.93Z"/><path class="cls-22" d="M175.42,109.42q0,2.38-3.55,3.46a22.62,22.62,0,0,1-3.53.14q-4.67,0-6.89,2.43a18.13,18.13,0,0,0-2.72,5.51,10.22,10.22,0,0,1,6.08-1.77,7.81,7.81,0,0,1,7.11,4.15,16.46,16.46,0,0,1,2,8.42,15.62,15.62,0,0,1-2.7,9.21,9.45,9.45,0,0,1-8.16,4.36,8.82,8.82,0,0,1-8.2-4.67q-2.24-3.91-2.24-10.59a32.33,32.33,0,0,1,2.48-12.45q3.05-7.39,8.37-8.75a18,18,0,0,1,3.82-.26,11.35,11.35,0,0,0,3.48-.38q.43-2,1.86-2a2.48,2.48,0,0,1,1.94,1A3.33,3.33,0,0,1,175.42,109.42Zm-5.92,22.75q0-8.13-5-8.13a6,6,0,0,0-5.34,3.17,11.76,11.76,0,0,0-1.67,6.32,8,8,0,0,0,1.38,4.75,4.85,4.85,0,0,0,4.2,2.24,5.6,5.6,0,0,0,5-2.67A10.31,10.31,0,0,0,169.5,132.18Z"/><path class="cls-22" d="M200.6,122.66l-8.25,17.84q-3.05,6.51-4.67,10.9L186.1,156a2.21,2.21,0,0,1-2.15,1.72,2.5,2.5,0,0,1-1.73-.66,2.11,2.11,0,0,1-.73-1.63q0-2.38,5.15-13.81l-8.54-16.43L177,123.47a3.85,3.85,0,0,1-.64-1.84,2.55,2.55,0,0,1,2.43-2.46,2,2,0,0,1,1.69.83,93.71,93.71,0,0,1,8.7,16l3.53-8.23q1.91-4.27,3.67-7.35a2.27,2.27,0,0,1,2-1.34,2.48,2.48,0,0,1,1.73.69,2.17,2.17,0,0,1,.75,1.65A2.89,2.89,0,0,1,200.6,122.66Z"/><path class="cls-22" d="M225,142.12a1.89,1.89,0,0,1-.75,1.55,2.64,2.64,0,0,1-1.68.6,2.31,2.31,0,0,1-2.3-1.69,31.49,31.49,0,0,0-3.47-5.72q-3-4.27-3.91-4.29H210q0,.79,0,2.79t0,2.81a40.91,40.91,0,0,1-.12,4.46,2.16,2.16,0,0,1-2.34,1.93,2.55,2.55,0,0,1-1.71-.6,2,2,0,0,1-.7-1.57q0-1.12.1-3.52t.1-3.54q0-2.27-.17-6.8t-.17-6.82q0-3.08,2.46-3.08a2.45,2.45,0,0,1,1.69.62,2,2,0,0,1,.69,1.57q0,1.74.17,7h1.74a4.79,4.79,0,0,0,4.2-2.6l1-2.29q1.84-3.82,4.56-3.82a4.47,4.47,0,0,1,1.79.41q1.19.53,1.19,1.38,0,1.88-1.62,1.88-1.34,0-2.77,3.2-1,2.17-1.12,2.41a6.94,6.94,0,0,1-1.65,2.1,21.72,21.72,0,0,1,5,5.58Q225,140.09,225,142.12Z"/><path class="cls-22" d="M247.9,145.51q-.45,0-1.65-1a10.67,10.67,0,0,1-1.6-1.74,30.74,30.74,0,0,1-4,1.87,8.9,8.9,0,0,1-2.91.63q-5.58,0-8.13-3.15-2.41-3-2.41-9.06a13.69,13.69,0,0,1,4-9.87,12.74,12.74,0,0,1,9.48-4.1,12.25,12.25,0,0,1,4.65,1.07q3.24,1.34,3.24,3.22a1.61,1.61,0,0,1-.48,1.14,17.39,17.39,0,0,0-.37,3q-.13,2.07-.15,5.32a19.47,19.47,0,0,0,.41,4.67,35.79,35.79,0,0,0,1.5,4.2q.17.43.55,1.26l.14.41a2.06,2.06,0,0,1-.67,1.57A2.21,2.21,0,0,1,247.9,145.51Zm-5-16.58a20.74,20.74,0,0,1,.13-2.23q.13-1.2.39-2.56a11.68,11.68,0,0,0-1.51-.67,3.36,3.36,0,0,0-1-.21,8.27,8.27,0,0,0-6.38,3,11.41,11.41,0,0,0-1.3,12.82,4.75,4.75,0,0,0,4.15,2,8.31,8.31,0,0,0,3.89-.83,14.31,14.31,0,0,0,2.41-1.81A86.64,86.64,0,0,1,242.94,128.93Z"/></g></g></svg>